<?xml version="1.0" standalone="no"?>
<!DOCTYPE svg PUBLIC "-//W3C//DTD SVG 20010904//EN"
 "http://www.w3.org/TR/2001/REC-SVG-20010904/DTD/svg10.dtd">
<svg version="1.0" xmlns="http://www.w3.org/2000/svg"
 width="700.000000pt" height="700.000000pt" viewBox="0 0 700.000000 700.000000"
 preserveAspectRatio="xMidYMid meet">
<metadata>
Created by potrace 1.11, written by Peter Selinger 2001-2013
</metadata>
<g transform="translate(0.000000,700.000000) scale(0.100000,-0.100000)"
fill="#000000" stroke="none">
<path d="M3167 6364 c-1 -1 -32 -4 -68 -8 -323 -30 -614 -257 -744 -580 -44
-107 -47 -140 -22 -188 39 -71 131 -86 189 -31 15 14 35 49 44 77 95 296 367
494 660 479 89 -4 150 -21 244 -66 66 -32 103 -59 166 -122 117 -115 178 -215
248 -406 24 -67 55 -92 115 -93 74 -1 97 21 145 140 110 269 251 430 446 507
234 92 496 33 681 -153 230 -233 278 -612 118 -934 -95 -189 -297 -425 -584
-681 -43 -38 -101 -91 -129 -116 -28 -26 -85 -75 -126 -109 -41 -35 -77 -66
-80 -69 -3 -3 -34 -31 -70 -61 -36 -30 -78 -67 -95 -81 -128 -113 -280 -239
-287 -239 -5 0 -58 42 -117 93 -59 50 -129 110 -156 132 -70 57 -540 460 -594
509 -72 65 -294 287 -327 326 -16 20 -42 53 -59 74 -35 45 -72 66 -115 66 -93
0 -148 -96 -104 -181 46 -91 324 -372 599 -609 61 -52 121 -104 135 -116 31
-28 101 -87 164 -139 27 -22 54 -45 60 -50 6 -6 38 -33 71 -60 33 -28 71 -60
85 -72 214 -183 278 -237 297 -250 26 -17 70 -22 100 -12 53 19 969 822 1157
1014 139 142 287 324 337 415 8 14 17 27 20 30 24 19 121 259 134 330 3 14 9
48 14 75 11 53 8 310 -3 360 -50 224 -130 383 -262 521 -235 247 -591 338
-914 234 -189 -60 -377 -213 -500 -407 -18 -29 -35 -53 -36 -53 -2 0 -24 33
-51 73 -70 106 -231 262 -325 315 -72 41 -186 86 -246 97 -48 9 -210 23 -215
19z"/>
<path d="M2351 5245 c-64 -55 -61 -145 7 -194 102 -72 235 46 178 158 -34 65
-128 83 -185 36z"/>
<path d="M415 3606 c-16 -7 -39 -23 -50 -36 -20 -22 -20 -38 -23 -1177 -2
-1144 -2 -1156 18 -1188 11 -18 33 -38 50 -45 41 -17 827 -17 890 0 91 24 186
101 231 184 l22 42 69 -13 c101 -19 186 -42 243 -66 28 -11 211 -117 408 -234
486 -291 576 -333 800 -382 136 -30 202 -36 362 -34 210 1 396 40 590 123 138
58 335 145 409 179 37 17 69 31 71 31 3 0 33 13 67 29 35 15 115 51 178 79 63
27 192 83 285 125 94 41 321 141 505 222 673 296 856 378 898 402 142 84 240
273 226 438 -24 267 -235 452 -504 439 -66 -3 -200 -47 -1044 -338 -137 -47
-252 -86 -255 -86 -3 0 -6 44 -7 98 -1 74 -6 110 -23 153 -56 146 -159 247
-309 301 -54 20 -78 21 -519 23 -444 2 -464 3 -501 23 -22 11 -163 90 -313
174 -390 220 -397 223 -479 251 -130 44 -182 47 -684 48 l-474 0 -15 37 c-20
51 -90 127 -144 159 -84 49 -126 53 -553 52 -306 0 -402 -3 -425 -13z m853
-256 c62 -38 60 0 58 -982 l-1 -896 -25 -27 c-46 -49 -47 -49 -387 -50 -283 0
-323 1 -324 15 -3 49 -4 1928 0 1943 3 16 27 17 325 17 304 0 323 -1 354 -20z
m1262 -234 c110 -22 146 -38 427 -197 106 -60 209 -118 230 -130 21 -12 82
-46 135 -76 54 -30 118 -61 143 -68 35 -11 143 -14 483 -15 240 0 450 -3 466
-6 42 -7 105 -42 132 -72 113 -126 76 -321 -74 -390 l-57 -26 -672 0 c-666 -1
-672 -1 -700 -22 -72 -54 -72 -152 1 -202 l32 -22 680 0 c711 0 718 1 819 45
22 9 117 43 210 75 94 32 296 102 450 155 774 267 917 315 942 315 92 1 188
-56 219 -129 37 -85 19 -196 -41 -256 -44 -44 20 -14 -1185 -542 -118 -52
-239 -105 -268 -119 -29 -13 -54 -24 -57 -24 -2 0 -32 -13 -67 -29 -35 -16
-178 -79 -318 -141 -140 -61 -325 -143 -411 -181 -209 -92 -302 -122 -449
-144 -100 -15 -282 -17 -360 -4 -30 5 -73 12 -95 15 -61 10 -242 72 -320 112
-38 19 -225 128 -415 242 -190 114 -374 220 -410 237 -97 47 -262 93 -387 108
-12 2 -25 5 -30 8 -6 4 -10 1462 -4 1487 2 8 911 4 951 -4z"/>
<path d="M903 3112 c-53 -25 -81 -93 -62 -149 33 -101 179 -112 224 -17 19 40
19 65 1 107 -24 59 -103 87 -163 59z"/>
</g>
</svg>
